# xmcd CD database file
#
# Track frame offsets:
#	150
#	16300
#	38975
#	57471
#	75713
#	90466
#	110868
#	126783
#	149430
#	167346
#	186652
#
# Disc length: 2920 seconds
#
# Revision: 0
# Processed by: cddbd v1.5.1PL0 Copyright (c) Steve Scherf et al.
# Submitted via: CDex 1.50
#
DISCID=980b660b
DTITLE=Michelle - Michelle
DYEAR=2004
DGENRE=New Age
TTITLE0=Fallin'
TTITLE1=Zoom
TTITLE2=If I Say I Love You
TTITLE3=The Love You Want
TTITLE4=Kay Tagal
TTITLE5=It Might Be You
TTITLE6=Ayoko Na Sana
TTITLE7=Isit Ulit Man Lang
TTITLE8=Kailan Kaya
TTITLE9=Mamahalin Kita, Kahit Na
TTITLE10=It's All Coming Back To Me Now
EXTD=YEAR: 2004
EXTT0=
EXTT1=
EXTT2=
EXTT3=
EXTT4=
EXTT5=
EXTT6=
EXTT7=
EXTT8=
EXTT9=
EXTT10=
PLAYORDER=
